# xmcd
#
# Track frame offsets: 
#        150
#        6884
#        21826
#        31342
#        45033
#        56624
#        67656
#        79320
#        93248
#        99877
#        112547
#        122208
#        132784
#        147062
#        158790
#        166029
#        172956
#        184313
#        194435
#        203730
#        218635
#        229477
#        238779
#        250924
#        264400
#        276554
#        286085
#        298907
#
# Disc length: 4151 seconds
#
# Revision: 1
# Processed by: cddbd v1.5.2PL0 Copyright (c) Steve Scherf et al.
# Submitted via: ExactAudioCopyFreeDBPlugin 1.0
#
DISCID=7e10351c
DTITLE=Various Artist - Rhythm 'n' Bluesin' by the Bayou (Volume 3)  
DTITLE=[Ace Records]
DYEAR=2013
DGENRE=R&B
TTITLE0=Rockin' Sidney and His All Stars - Rocky
TTITLE1=Tabby Thomas - I Don't Care
TTITLE2=Charles Sheffield - Give it Up
TTITLE3=Elizabeth - Crazy About Love (aka "As Long as I'm Moving")
TTITLE4=Billy Tate - Right from Wrong
TTITLE5=Vince Monroe - Hey Mattie
TTITLE6=Blue Charlie - Whole Lot of Drinking on the Block
TTITLE7=Clarence Garlow - Carry On
TTITLE8=Sidney Simien and His All Stars - Make Me Understand
TTITLE9=Mad Dog Sheffield - Cool Cat
TTITLE10=Talton Miller - Mean Old Kokomo
TTITLE11=Thaddeus Declouet - Bull Frog Bop
TTITLE12=C. J. Thierry - Crazy About You Baby
TTITLE13=Big Chenier - I Wanna Know, I Know Now
TTITLE14=Flo - Go Cat Go
TTITLE15=Sonny Martin - Why Does Everything Happen to Me
TTITLE16=Jerry Morris - Cool Down Baby
TTITLE17=Jimmy Anderson - Don't Do That to Me
TTITLE18=Sidney Simien and His All-Stars - She's My Morning Coffee
TTITLE19=Clarence Garlow - No No Baby
TTITLE20=Vince Monroe - Hard Working Girlfriend
TTITLE21=Chuck Martin - Yeah, Yeah, Yeah
TTITLE22=Jerry Morris - Clema
TTITLE23=Elizabeth - Ain't Got Nobody
TTITLE24=Blue Charlie - Honey Bee
TTITLE25=Clarence Garlow - Sound the Bell
TTITLE26=Mad Dog Sheffield - Pretty Little Dolly
TTITLE27=Blue Charlie - Watch That Crow
EXTD=
EXTT0=
EXTT1=
EXTT2=
EXTT3=
EXTT4=
EXTT5=
EXTT6=
EXTT7=
EXTT8=
EXTT9=
EXTT10=
EXTT11=
EXTT12=
EXTT13=
EXTT14=
EXTT15=
EXTT16=
EXTT17=
EXTT18=
EXTT19=
EXTT20=
EXTT21=
EXTT22=
EXTT23=
EXTT24=
EXTT25=
EXTT26=
EXTT27=
PLAYORDER=
